<svg width="361" height="180" viewBox="0 0 361 180" fill="none" xmlns="http://www.w3.org/2000/svg">
<path d="M210.301 46.5455V0H239.483V6.04546H217.324V20.2273H237.96V26.25H217.324V40.5H239.756V46.5455H210.301Z" fill="#2C2C2C"/>
<path d="M162.801 46.5455V0H169.824V20.2273H193.028V0H200.074V46.5455H193.028V26.25H169.824V46.5455H162.801Z" fill="#2C2C2C"/>
<path d="M118.818 6.04546V0H154.841V6.04546H140.318V46.5455H133.318V6.04546H118.818Z" fill="#2C2C2C"/>
<path d="M310.605 127.545V65.7273H334.994C339.663 65.7273 343.647 66.5624 346.947 68.2326C350.268 69.8827 352.793 72.227 354.524 75.2656C356.274 78.2841 357.15 81.8358 357.15 85.9208C357.15 90.0259 356.264 93.5575 354.493 96.5156C352.723 99.4536 350.157 101.707 346.796 103.277C343.456 104.847 339.411 105.631 334.662 105.631H318.332V95.1271H332.549C335.045 95.1271 337.117 94.785 338.767 94.1009C340.417 93.4167 341.645 92.3904 342.45 91.022C343.275 89.6537 343.687 87.9533 343.687 85.9208C343.687 83.8683 343.275 82.1377 342.45 80.7291C341.645 79.3204 340.407 78.2539 338.737 77.5295C337.087 76.7849 335.004 76.4127 332.489 76.4127H323.675V127.545H310.605ZM343.989 99.4134L359.353 127.545H344.925L329.893 99.4134H343.989Z" fill="#2C2C2C"/>
<path d="M260.039 127.545H246.034L267.374 65.7273H284.217L305.527 127.545H291.522L276.037 79.8537H275.554L260.039 127.545ZM259.164 103.247H292.246V113.449H259.164V103.247Z" fill="#2C2C2C"/>
<path d="M195.551 127.545V65.7273H220.302C224.85 65.7273 228.643 66.4014 231.682 67.7497C234.72 69.0979 237.004 70.9694 238.534 73.364C240.063 75.7385 240.828 78.4753 240.828 81.5742C240.828 83.989 240.345 86.112 239.379 87.9432C238.413 89.7543 237.085 91.2434 235.395 92.4105C233.724 93.5575 231.813 94.3725 229.659 94.8555V95.4592C232.014 95.5598 234.217 96.2238 236.27 97.4514C238.343 98.6789 240.023 100.399 241.311 102.613C242.599 104.806 243.243 107.422 243.243 110.461C243.243 113.741 242.428 116.669 240.798 119.245C239.188 121.8 236.803 123.823 233.644 125.312C230.484 126.801 226.591 127.545 221.962 127.545H195.551ZM208.621 116.86H219.276C222.918 116.86 225.574 116.166 227.245 114.777C228.915 113.369 229.75 111.497 229.75 109.163C229.75 107.453 229.337 105.943 228.512 104.635C227.687 103.327 226.51 102.301 224.981 101.556C223.472 100.812 221.671 100.44 219.578 100.44H208.621V116.86ZM208.621 91.5955H218.31C220.101 91.5955 221.691 91.2836 223.079 90.6598C224.488 90.0159 225.595 89.1103 226.399 87.9432C227.225 86.7761 227.637 85.3775 227.637 83.7475C227.637 81.5139 226.842 79.7128 225.252 78.3445C223.683 76.9761 221.449 76.2919 218.551 76.2919H208.621V91.5955Z" fill="#2C2C2C"/>
<path d="M187.115 65.7273V127.545H175.826L148.932 88.6374H148.479V127.545H135.409V65.7273H146.879L173.562 104.605H174.106V65.7273H187.115Z" fill="#2C2C2C"/>
<path d="M127.019 65.7273V127.545H113.949V65.7273H127.019Z" fill="#2C2C2C"/>
<path d="M57.7081 127.545V65.7273H70.7781V92.984H71.593L93.8391 65.7273H109.505L86.5646 93.4066L109.777 127.545H94.141L77.2074 102.13L70.7781 109.978V127.545H57.7081Z" fill="#2C2C2C"/>
<path d="M37.908 83.506C37.6665 81.0711 36.6302 79.1796 34.799 77.8313C32.9678 76.4831 30.4826 75.8089 27.3434 75.8089C25.2103 75.8089 23.4093 76.1108 21.9403 76.7145C20.4713 77.2981 19.3445 78.113 18.5597 79.1594C17.795 80.2058 17.4126 81.3931 17.4126 82.7212C17.3724 83.828 17.6038 84.7939 18.1069 85.619C18.6301 86.444 19.3445 87.1584 20.25 87.7621C21.1555 88.3456 22.2019 88.8588 23.3892 89.3015C24.5765 89.7241 25.8442 90.0863 27.1925 90.3881L32.7464 91.7163C35.4429 92.32 37.9181 93.1249 40.1719 94.131C42.4257 95.1372 44.3776 96.3748 46.0277 97.8437C47.6778 99.3127 48.9556 101.043 49.8611 103.036C50.7868 105.028 51.2597 107.312 51.2798 109.887C51.2597 113.671 50.2938 116.951 48.3821 119.728C46.4905 122.484 43.7538 124.628 40.1719 126.157C36.6101 127.666 32.3138 128.421 27.283 128.421C22.2925 128.421 17.9459 127.656 14.2432 126.127C10.5607 124.597 7.68312 122.334 5.61044 119.335C3.55788 116.317 2.48129 112.584 2.38068 108.137H15.028C15.1689 110.209 15.7625 111.94 16.8089 113.328C17.8755 114.697 19.2941 115.733 21.065 116.437C22.8559 117.122 24.8783 117.464 27.1321 117.464C29.3456 117.464 31.2674 117.142 32.8974 116.498C34.5475 115.854 35.8253 114.958 36.7308 113.811C37.6364 112.664 38.0891 111.346 38.0891 109.857C38.0891 108.469 37.6766 107.302 36.8516 106.356C36.0466 105.41 34.8594 104.605 33.2898 103.941C31.7403 103.277 29.8387 102.673 27.5849 102.13L20.8537 100.44C15.6418 99.1719 11.5266 97.1897 8.50816 94.4932C5.4897 91.7968 3.99052 88.1645 4.01065 83.5966C3.99052 79.8537 4.98662 76.5837 6.99893 73.7866C9.03136 70.9895 11.8184 68.8061 15.3601 67.2365C18.9017 65.6669 22.9264 64.8821 27.4339 64.8821C32.022 64.8821 36.0265 65.6669 39.4474 67.2365C42.8885 68.8061 45.5649 70.9895 47.4766 73.7866C49.3883 76.5837 50.3743 79.8235 50.4347 83.506H37.908Z" fill="#2C2C2C"/>
<path d="M287.986 179.545V164.845H290.716V177.235H298.402V179.545H287.986Z" fill="#2C2C2C"/>
<path d="M277.196 179.755C276.048 179.755 274.991 179.566 274.025 179.188C273.059 178.81 272.219 178.285 271.505 177.613C270.791 176.927 270.238 176.129 269.846 175.219C269.454 174.295 269.258 173.287 269.258 172.195C269.258 171.103 269.454 170.102 269.846 169.192C270.238 168.268 270.791 167.47 271.505 166.798C272.219 166.112 273.059 165.58 274.025 165.202C274.991 164.824 276.041 164.635 277.175 164.635C278.323 164.635 279.373 164.824 280.325 165.202C281.291 165.58 282.131 166.112 282.845 166.798C283.559 167.47 284.112 168.268 284.504 169.192C284.896 170.102 285.092 171.103 285.092 172.195C285.092 173.287 284.896 174.295 284.504 175.219C284.112 176.143 283.559 176.941 282.845 177.613C282.131 178.285 281.291 178.81 280.325 179.188C279.373 179.566 278.33 179.755 277.196 179.755ZM277.175 177.361C277.917 177.361 278.603 177.235 279.233 176.983C279.863 176.731 280.409 176.374 280.871 175.912C281.333 175.436 281.69 174.89 281.942 174.274C282.208 173.644 282.341 172.951 282.341 172.195C282.341 171.439 282.208 170.753 281.942 170.137C281.69 169.507 281.333 168.961 280.871 168.499C280.409 168.023 279.863 167.659 279.233 167.407C278.603 167.155 277.917 167.029 277.175 167.029C276.433 167.029 275.747 167.155 275.117 167.407C274.501 167.659 273.955 168.023 273.479 168.499C273.017 168.961 272.653 169.507 272.387 170.137C272.135 170.753 272.009 171.439 272.009 172.195C272.009 172.937 272.135 173.623 272.387 174.253C272.653 174.883 273.017 175.436 273.479 175.912C273.941 176.374 274.487 176.731 275.117 176.983C275.747 177.235 276.433 177.361 277.175 177.361Z" fill="#2C2C2C"/>
<path d="M259.807 179.545L253.381 164.845H256.342L262.075 178.138H260.374L266.17 164.845H268.9L262.495 179.545H259.807Z" fill="#2C2C2C"/>
<path d="M245.122 179.755C243.974 179.755 242.917 179.566 241.951 179.188C240.985 178.81 240.145 178.285 239.431 177.613C238.717 176.927 238.164 176.129 237.772 175.219C237.38 174.295 237.184 173.287 237.184 172.195C237.184 171.103 237.38 170.102 237.772 169.192C238.164 168.268 238.717 167.47 239.431 166.798C240.145 166.112 240.985 165.58 241.951 165.202C242.917 164.824 243.967 164.635 245.101 164.635C246.249 164.635 247.299 164.824 248.251 165.202C249.217 165.58 250.057 166.112 250.771 166.798C251.485 167.47 252.038 168.268 252.43 169.192C252.822 170.102 253.018 171.103 253.018 172.195C253.018 173.287 252.822 174.295 252.43 175.219C252.038 176.143 251.485 176.941 250.771 177.613C250.057 178.285 249.217 178.81 248.251 179.188C247.299 179.566 246.256 179.755 245.122 179.755ZM245.101 177.361C245.843 177.361 246.529 177.235 247.159 176.983C247.789 176.731 248.335 176.374 248.797 175.912C249.259 175.436 249.616 174.89 249.868 174.274C250.134 173.644 250.267 172.951 250.267 172.195C250.267 171.439 250.134 170.753 249.868 170.137C249.616 169.507 249.259 168.961 248.797 168.499C248.335 168.023 247.789 167.659 247.159 167.407C246.529 167.155 245.843 167.029 245.101 167.029C244.359 167.029 243.673 167.155 243.043 167.407C242.427 167.659 241.881 168.023 241.405 168.499C240.943 168.961 240.579 169.507 240.313 170.137C240.061 170.753 239.935 171.439 239.935 172.195C239.935 172.937 240.061 173.623 240.313 174.253C240.579 174.883 240.943 175.436 241.405 175.912C241.867 176.374 242.413 176.731 243.043 176.983C243.673 177.235 244.359 177.361 245.101 177.361Z" fill="#2C2C2C"/>
<path d="M221.233 179.545V164.845H223.48L232.699 176.164H231.586V164.845H234.295V179.545H232.048L222.829 168.226H223.942V179.545H221.233Z" fill="#2C2C2C"/>
<path d="M205.872 179.545V164.845H211.899C213.859 164.845 215.392 165.307 216.498 166.231C217.618 167.155 218.178 168.436 218.178 170.074C218.178 171.152 217.926 172.083 217.422 172.867C216.918 173.637 216.197 174.232 215.259 174.652C214.335 175.058 213.222 175.261 211.92 175.261H207.384L208.602 174.022V179.545H205.872ZM215.49 179.545L211.773 174.211H214.692L218.43 179.545H215.49ZM208.602 174.316L207.384 173.014H211.794C212.998 173.014 213.901 172.755 214.503 172.237C215.119 171.719 215.427 170.998 215.427 170.074C215.427 169.136 215.119 168.415 214.503 167.911C213.901 167.407 212.998 167.155 211.794 167.155H207.384L208.602 165.811V174.316Z" fill="#2C2C2C"/>
<path d="M191.804 179.545V164.845H202.535V167.134H194.534V177.256H202.829V179.545H191.804ZM194.324 173.203V170.956H201.632V173.203H194.324Z" fill="#2C2C2C"/>
<path d="M185.135 179.545V164.845H187.865V179.545H185.135ZM174.803 179.545V164.845H177.533V179.545H174.803ZM177.302 173.245V170.914H185.345V173.245H177.302Z" fill="#2C2C2C"/>
<path d="M166.534 179.755C165.414 179.755 164.371 179.573 163.405 179.209C162.453 178.831 161.62 178.306 160.906 177.634C160.206 176.948 159.66 176.143 159.268 175.219C158.876 174.295 158.68 173.287 158.68 172.195C158.68 171.103 158.876 170.095 159.268 169.171C159.66 168.247 160.213 167.449 160.927 166.777C161.641 166.091 162.474 165.566 163.426 165.202C164.378 164.824 165.421 164.635 166.555 164.635C167.759 164.635 168.858 164.845 169.852 165.265C170.846 165.671 171.686 166.28 172.372 167.092L170.608 168.751C170.076 168.177 169.481 167.75 168.823 167.47C168.165 167.176 167.451 167.029 166.681 167.029C165.911 167.029 165.204 167.155 164.56 167.407C163.93 167.659 163.377 168.016 162.901 168.478C162.439 168.94 162.075 169.486 161.809 170.116C161.557 170.746 161.431 171.439 161.431 172.195C161.431 172.951 161.557 173.644 161.809 174.274C162.075 174.904 162.439 175.45 162.901 175.912C163.377 176.374 163.93 176.731 164.56 176.983C165.204 177.235 165.911 177.361 166.681 177.361C167.451 177.361 168.165 177.221 168.823 176.941C169.481 176.647 170.076 176.206 170.608 175.618L172.372 177.298C171.686 178.096 170.846 178.705 169.852 179.125C168.858 179.545 167.752 179.755 166.534 179.755Z" fill="#2C2C2C"/>
<path d="M136.118 179.545L142.733 164.845H145.421L152.057 179.545H149.201L143.51 166.294H144.602L138.932 179.545H136.118ZM139.163 176.143L139.898 174.001H147.836L148.571 176.143H139.163Z" fill="#2C2C2C"/>
<path d="M121.196 179.545V164.845H123.443L132.662 176.164H131.549V164.845H134.258V179.545H132.011L122.792 168.226H123.905V179.545H121.196Z" fill="#2C2C2C"/>
<path d="M104.195 179.545V164.845H106.442L115.661 176.164H114.548V164.845H117.257V179.545H115.01L105.791 168.226H106.904V179.545H104.195Z" fill="#2C2C2C"/>
<path d="M97.4886 179.545V164.845H100.219V179.545H97.4886Z" fill="#2C2C2C"/>
<path d="M81.4132 179.545V173.728L82.0222 175.408L75.6382 164.845H78.5572L83.6812 173.35H82.0432L87.2092 164.845H89.8972L83.5132 175.408L84.1432 173.728V179.545H81.4132Z" fill="#2C2C2C"/>
<path d="M62.974 179.545V164.845H69.862C71.626 164.845 72.97 165.195 73.894 165.895C74.818 166.581 75.28 167.505 75.28 168.667C75.28 169.451 75.098 170.123 74.734 170.683C74.37 171.229 73.88 171.656 73.264 171.964C72.662 172.258 72.004 172.405 71.29 172.405L71.668 171.649C72.494 171.649 73.236 171.803 73.894 172.111C74.552 172.405 75.07 172.839 75.448 173.413C75.84 173.987 76.036 174.701 76.036 175.555C76.036 176.815 75.553 177.795 74.587 178.495C73.621 179.195 72.186 179.545 70.282 179.545H62.974ZM65.704 177.403H70.114C71.136 177.403 71.92 177.235 72.466 176.899C73.012 176.563 73.285 176.024 73.285 175.282C73.285 174.554 73.012 174.022 72.466 173.686C71.92 173.336 71.136 173.161 70.114 173.161H65.494V171.04H69.568C70.52 171.04 71.248 170.872 71.752 170.536C72.27 170.2 72.529 169.696 72.529 169.024C72.529 168.338 72.27 167.827 71.752 167.491C71.248 167.155 70.52 166.987 69.568 166.987H65.704V177.403Z" fill="#2C2C2C"/>
<path d="M0 145.545H361V147.045H0V145.545Z" fill="#2C2C2C"/>
</svg>
