<?xml version="1.0" encoding="utf-8"?>
<!-- Generator: Adobe Illustrator 27.5.0, SVG Export Plug-In . SVG Version: 6.00 Build 0)  -->
<svg version="1.1" xmlns="http://www.w3.org/2000/svg" xmlns:xlink="http://www.w3.org/1999/xlink" x="0px" y="0px"
	 viewBox="0 0 500 750" style="enable-background:new 0 0 500 750;" xml:space="preserve">
<g id="BACKGROUND">
	
		<rect x="-123.468" y="125.511" transform="matrix(6.123234e-17 -1 1 6.123234e-17 -123.4681 625.5106)" style="fill:#DED6D7;" width="748.979" height="497.957"/>
</g>
<g id="OBJECTS">
	<g>
		<path style="fill:#D5B0AC;" d="M258.739,311.655c-16.004-16.848-45.103-3.119-44.042,19.487c0.434,9.236,5.87,17.8,14.299,21.358
			c2.676,1.661,5.633,2.789,8.743,3.148c10.352,1.198,20.893-5.983,25.441-15.092C267.897,331.112,265.996,319.294,258.739,311.655z
			"/>
		<path style="fill:#BCAB79;" d="M444.764,675.248c-8.271-13.835-17.642-27.125-27.835-39.613
			c-4.392-5.38-9.935-13.415-16.972-15.309c-7.721-2.078-12.979,3.802-14.893,10.568c-3.779,13.359-7.122,26.555-20.632,33.093
			c-10.578,5.12-23.478,4.339-34.32,0.558c-14.329-4.997-26.233-15.206-37.338-25.206c-12.945-11.658-25.746-23.477-38.647-35.184
			c-26.293-23.86-52.577-47.732-78.767-71.705c-23.34-21.365-53.141-57.419-88.729-47.406c-0.653,0.031-1.311,0.11-1.974,0.272
			c-3.641,0.889-6.16,3.246-9.226,5.099c-2.171,1.313-2.423,4.31-0.944,6.046c-0.179,1.517,0.396,3.143,1.896,4.076
			c5.409,3.364,11.205,5.842,16.825,8.834c5.715,3.043,10.866,6.968,15.833,11.097c10.146,8.433,19.298,19.395,25.502,31.055
			c6.966,13.091,13.156,26.992,18.006,41.009c5.141,14.859,10.449,29.826,14.636,44.983c2.15,7.786,4.25,15.559,6.635,23.277
			c2.041,6.606,4.132,13.503,9.53,18.209c5.34,4.656,12.25,6.406,19.093,7.418c8.135,1.203,16.315,2.155,24.484,3.087
			c32.028,3.654,64.258,5.511,96.493,5.555c18.132,0.025,36.265-0.522,54.362-1.642c8.713-0.539,17.419-1.211,26.112-2.015
			c6.867-0.635,14.563-0.601,21.276-2.754c4.963,0.173,9.907-0.269,14.803-1.624C444.918,685.655,447.428,679.705,444.764,675.248z"
			/>
		<path style="fill:#FFFFFF;" d="M237.569,135.16c-3.019-8.002-6.265-15.903-10.174-23.514c-3.215-6.259-6.499-12.972-11.501-18.046
			c-11.58-11.744-26.047-4.15-38.057,2.689c-24.994,14.233-45.367,36.056-60.393,60.392c-8.608,13.942-15.838,28.491-21.263,43.964
			c-6.369,18.17-12.245,38.101-9.247,57.481c0.707,4.568,5.493,4.719,8.385,2.421c1.227-0.022,2.495-0.301,3.736-0.905
			c15.328-7.45,31.408-13.782,47.649-18.938c6.816-2.164,15.854-3.161,21.154-8.377c5.366-5.281,7.941-13.639,11.708-20.081
			c8.579-14.673,19.816-27.733,31.869-39.641c6.164-6.09,12.649-11.839,18.833-17.906
			C236.484,148.602,240.975,144.185,237.569,135.16z"/>
		<path style="fill:#FFFFFF;" d="M397.484,258.667c-1.566-3.646-4.563-8.885-8.536-10.837c-4.289-3.557-10.578-3.549-13.551,2.443
			c-1.729,3.485-0.656,6.961,0.286,10.484c0.977,3.652,1.602,7.236,1.574,11.026c-0.055,7.461-2.506,13.973-5.524,20.673
			c-2.986,6.629-5.326,14.272-2.973,21.465c2.415,7.383,10.622,10.882,16.734,5.136c5.168-4.858,7.08-12.134,9.752-18.454
			c2.786-6.591,4.477-13.28,5.141-20.412C401.083,272.731,400.457,265.588,397.484,258.667z"/>
		<path style="fill:#FFFFFF;" d="M308.048,281.458c-0.016-8.013-2.012-15.862-5.754-22.94c-3.727-7.05-9.159-14.909-18.049-14.632
			c-3.901,0.122-7.651,2.168-9.204,5.854c-1.856,4.407,0.459,9.148,2.209,13.196c1.515,3.504,3.502,6.931,4.01,10.777
			c0.578,4.373-0.43,8.956-1.609,13.135c-2.224,7.888-8.401,16.418-5.61,24.826c2.944,8.872,14.197,12.198,20.844,5.316
			c4.865-5.037,7.707-11.659,9.016-18.463C307.498,293.974,308.059,287.517,308.048,281.458z"/>
		<path style="fill:#D5B0AC;" d="M333.381,360.973c-1.311-1.597-3.293-1.775-5.221-1.607c-2.359,0.206-4.697,0.209-7.029-0.25
			c-2.326-0.457-4.588-1.179-6.959-1.4c-2.256-0.211-4.562,0.073-6.755,0.61c-5.122,1.253-9.925,3.833-14.701,6.004
			c-5.111,2.324-10.208,4.643-15.23,7.155c-0.801,0.401-0.912,1.313-0.61,2.033c-0.268,0.93-0.033,1.958,1.006,2.476
			c2.212,1.103,4.308,2.495,6.476,3.705c2.163,1.207,4.328,2.407,6.507,3.585c4.222,2.282,8.412,3.765,13.216,4.171
			c4.443,0.376,9.06,0.163,13.466-0.508c4.098-0.624,8.103-2.346,10.991-5.393c1.375-1.452,2.507-3.057,3.222-4.933
			c0.749-1.967,0.554-3.818,0.561-5.863c0.004-0.984,0.477-1.605,0.989-2.402c0.509-0.793,0.905-1.669,1.078-2.6
			C334.696,364.094,334.48,362.312,333.381,360.973z"/>
		<path style="fill:none;stroke:#1C3041;stroke-miterlimit:10;" d="M148.424,278.796c1.824,9.605-11.98,16.202-11.693,25.974
			c0.146,4.964,4.67,9.389,9.635,9.425c3.081,0.022,6.994-1.067,8.635,1.541c2.121,3.371-3.137,6.735-7.112,6.503
			c-8.526-0.499-16.441-6.649-19.032-14.787c-2.591-8.138,0.313-17.732,6.982-23.068c1.36-1.088,2.93-2.106,3.56-3.729
			c1.41-3.635-2.999-7.101-6.898-7.18c-7.947-0.16-14.352,7.629-15.112,15.541c-0.76,7.913,2.775,15.613,7.059,22.309
			c6.607,10.327,28.471,25.141,29.835,16.682c0.353-3.427,0.987-7.179,4.441-7.583c3.454-0.404,6.731,2.06,8.374,5.124
			c1.643,3.065,2,6.632,2.326,10.094c0.159,1.691,0.292,3.509-0.561,4.977c-1.697,2.92-5.96,2.665-9.221,1.783
			c-20.171-5.459-37.409-20.81-45.16-40.215c-2.599-6.505-4.186-13.621-3.029-20.53c1.157-6.909,5.439-13.553,11.923-16.205
			c8.041-3.289,17.113,0.018,25.154,3.306c2.386,0.975,4.917,2.068,6.326,4.226c1.522,2.333,1.367,5.354,0.983,8.113
			c-1.272,9.138-4.34,18.958-0.135,27.171c1.949,3.806,9.645,6.804,12.008,10.368c8.03,12.114,3.747,28.726,9.085,42.244
			c4.928,12.481,12.728,20.233,24.206,27.184c26.333,15.945,53.509,31.98,83.781,37.576c12.794,2.365,27.669,2.163,36.749-7.155
			c4.497-4.614,6.887-10.828,9.132-16.867c6.678-17.959,13.099-36.013,19.259-54.155c6.022-17.735,11.872-36.382,8.964-54.884
			c-1.287-8.185-4.28-16.371-2.898-24.54c1.81-10.699,10.955-20.67,7.65-31.005c-0.349-1.092-0.912-2.223-1.948-2.717
			c-1.111-0.529-2.423-0.167-3.587,0.233c-13.736,4.716-29.616,27.543-31.697,22.853c-2.081-4.691,20.518-9.346,27.976-12.93
			c3.431-1.649,7.197-3.67,8.338-7.301c0.688-2.189,0.262-4.555-0.169-6.809c-4.512-23.597-9.241-49.96-27.341-65.757
			c-5.378-4.693-8.374-10.212-11.974-16.376c-4.958-8.489-14.771-15.188-16.278-13.933c-1.507,1.255,9.763,7.946,15.28,19.328
			c1.441,2.973,3.213,6.822,0.799,9.079c-0.98,0.917-2.364,1.237-3.687,1.461c-22.339,3.794-46.021-9.5-67.313-1.752
			c0.717,2.044,3.292,2.749,5.453,2.589c2.161-0.16,4.334-0.87,6.453-0.419c0.791,0.168,1.578,0.522,2.072,1.162
			c0.968,1.255,0.445,3.184-0.698,4.283c-1.143,1.099-2.723,1.584-4.229,2.079c-12.077,3.971-23.187,10.847-32.13,19.882
			c-12.149,12.275-20.008,28.05-30.124,42.048c-10.116,13.997-23.927,26.975-41.066,29.105c-0.705-0.361-1.847,0.591-1.777,1.379
			c23.126,5.967,46.252,11.935,69.378,17.902c0.591,0.153,1.198,0.313,1.69,0.674c1.211,0.891,1.315,2.627,1.345,4.13
			c0.181,9.044,1.756,18.213,5.949,26.229c4.192,8.016,11.221,14.793,19.881,17.409c4.553,1.375,9.414,1.576,14.127,0.939
			c13.154-1.777,25.019-10.19,31.994-21.483c6.975-11.293,9.226-25.195,7.279-38.325c-1.127-7.604-3.728-15.212-8.861-20.935
			c-6.538-7.289-16.746-10.761-26.517-10.114c-5.06,0.335-31.725,5.044-47.909,15.902c-2.763,1.854,18.376-22.657,43.122-17.541
			c2.807,0.58-15.662,6.682-21.707,13.117c-9.267,9.864-17.376,21.483-18.586,34.963c-1.21,13.48,3.727,27.565,13.688,36.728
			c9.961,9.163,24.878,12.886,37.744,8.688c11.06-3.609,19.871-12.565,25.013-23.001c5.142-10.436,6.913-22.255,7.01-33.888
			c0.012-1.393,0.072-2.962,1.098-3.905c1.027-0.945,2.595-0.873,3.988-0.801c5.136,0.263,14.958,0.907,15.287-1.563
			s-21.114-2.325-21.303-0.026c-0.189,2.3,10.152,2.452,15.323,2.528c0.906,0.013,1.884,0.051,2.594,0.615
			c0.983,0.781,1.054,2.225,1.003,3.48c-0.355,8.738-2.509,17.799,0.472,26.02c4.253,11.731,13.589,22.436,25.663,25.589
			c13.597,3.55,28.224-3.843,36.988-14.828c11.731-14.704,14.687-35.913,7.424-53.265c-4.23-10.106-12.445-19.272-23.19-21.412
			c-9.941-1.98-20.365,2.468-27.632,9.535c-7.268,7.066-13.429,14.127-17.013,23.609c-2.736,7.238-3.413,17.191-2.866,24.909
			c0.566,7.993,4.111,15.428,6.265,23.146c0.867,3.107,1.514,6.38,0.894,9.546c-0.911,4.655-4.553,8.484-8.888,10.41
			c-4.335,1.926-13.684,3.132-13.965,1.457c-0.281-1.676,3.079-0.554,2.952-2.797c-0.151-2.664-7.811-5.922-14.847-2.972
			c-0.496,0.208-0.923,0.611-1.143,1.102c-0.619,1.382,1.178,2.785,2.681,2.602s2.739-1.229,4.128-1.831s4.412-0.809,4.016,0.819
			c-1.325,5.452-14.982,1.985-16.253,4.027c-1.271,2.042,8.944,3.274,11.954,6.927c2.129,2.583,0.757,4.769-0.693,6.476
			c-1.792,2.11-7.033,4.34-10.156,5.544c-7.213,2.78-21.482,8.892-21.838,11.688c0.308,0.89,1.5,1.005,2.44,0.962
			c7.934-0.368,15.868-0.737,23.801-1.105c2.014-0.094,4.035-0.188,6.024-0.521c2.369-0.397,4.676-1.131,7.06-1.426
			c5.301-0.656,10.672,0.887,15.99,0.385c1.365-0.129,2.748-0.404,3.929-1.101c1.942-1.146,3.136-3.452,2.951-5.7
			c-0.185-2.248-1.741-4.327-3.845-5.14c-3.366-1.3-7.132,0.574-10.721,0.205c-2.069-0.213-3.993-1.166-6.042-1.526
			c-3.62-0.636-7.281,0.615-10.721,1.908c-8.166,3.071-16.199,6.493-24.07,10.256c-1.523,0.728-3.149,1.576-3.869,3.102
			c-0.226,0.478-0.349,1.026-0.224,1.54c0.222,0.914,1.126,1.466,1.95,1.918c4.819,2.644,9.638,5.288,14.457,7.932
			c6.338,3.477,13.514,3.768,20.726,3.254c4.752-0.339,9.68-1.025,13.642-3.67c3.962-2.645,6.638-7.773,5.062-12.269
			c8-2.383,13.024-10.16,15.542-17.444c3.235,29.001,2.214,58.927-4.773,87.259c-2.482,10.065-5.7,20.184-11.846,28.532
			c-4.023,5.465-9.242,10.043-15.184,13.32c-4.444,2.451-13.571,6.557-14.452,4.302c-0.88-2.255,20.074-11.588,33.872-47.217
			c0.951-2.455-1.762-3.867-3.409-0.204c-7.484,16.64-19.885,35.592-34.387,45.362c-2.238,1.508-6.392,2.656-7.372,0.731
			c-2.174-4.273,19.229-14.792,16.667-41.251c-0.264-2.465-3.874-1.233-6.427,1.409c-6.422,6.643-12.347,13.565-17.425,21.285
			c-2.864,4.354-5.709,9.209-10.51,11.235c-0.657,0.277-1.382,0.497-2.077,0.336c-1.533-0.356-2.067-2.236-2.256-3.799
			c-2.033-16.837,4.829-46.063,1.38-46.892c-3.449-0.83-6.443,23.293-6.619,39.317c-0.045,4.091,0.713,13.999,5.608,15.501
			c0.802,0.246,1.661,0.177,2.5,0.161c10.669-0.204,19.481,8.336,29.881,10.724c11.685,2.684,24.926-2.48,35.44,3.282
			c19.575,10.728,40.717,17.871,55.491,34.604c14.774,16.733,25.521,36.558,36.137,56.194c12.649,23.397,25.299,46.794,37.948,70.19
			c2.05,3.792,4.167,8.063,3.067,12.232c-1.599,6.062-9.54,8.485-15.455,6.408c-5.915-2.077-10.161-7.187-14.026-12.123
			c-40.349-51.541-74.288-107.03-117.954-155.793c-4.526-5.054-10.389-11.622-16.057-10.541c-0.577,0.11-1.154,0.411-1.453,0.916
			c-0.5,0.845,0.04,1.903,0.573,2.727c24.206,37.418,55.222,70.89,72.704,111.883c2.666,6.25,5.024,12.758,5.432,19.541
			c0.696,11.599-4.799,23.391-14.128,30.317c-9.33,6.927-22.207,8.776-33.108,4.754c-6.65-2.453-12.38-6.841-17.997-11.164
			c-20.279-15.61-40.559-31.221-60.838-46.831c-16.17-12.447-32.375-24.924-47.149-39.001
			c-19.143-18.24-35.711-39.004-51.296-60.364c-0.781-1.071-1.598-2.413-1.082-3.634c0.577-1.364,2.377-1.6,3.857-1.632
			c10.893-0.235,21.787-0.471,32.68-0.706c0.488-2.877-3.418-4.217-6.33-4.403c-15.074-0.958-30.148-1.917-45.222-2.875
			c-9.119-8.17-20.358-13.433-31.564-18.366c-3.241-1.427-6.745-2.731-10.245-2.187c-2.36,0.367-4.504,1.546-6.591,2.706
			c-5.835,3.241-11.67,6.482-17.506,9.723c-1.55,0.861-3.313,2.074-3.26,3.846c0.031,1.029,0.7,1.924,1.415,2.665
			c3.856,3.997,9.514,5.526,14.707,7.498c18.907,7.177,34.17,21.994,45.193,38.949c11.023,16.955,18.207,36.077,24.864,55.173
			c6.318,18.125,12.243,36.387,17.767,54.77c2.074,6.901,4.111,13.95,3.992,21.155c-0.066,3.978-1.573,8.793-5.482,9.53
			c-5.09,0.96-7.998-5.536-8.987-10.621c-1.796-9.242-0.721-26.507-5.389-27.727c-4.668-1.22-0.245,17.391-0.367,26.087
			c-0.039,2.781-0.126,5.729-1.636,8.065c-2.51,3.883-7.813,4.573-12.43,4.816c-23.269,1.223-46.625,0.798-69.835-1.27
			c-4.876-0.434-9.937-1.004-14.099-3.582c-7.924-4.908-10.117-15.269-11.38-24.504c-4.641-33.942-6.549-68.258-5.698-102.506
			c0.338-13.613,2.265-25.775,7.063-36.693c2.7-6.143,10.062-11.947,8.729-14.338c-1.333-2.391-15.849,15.809-19.376,11.948
			c-3.527-3.861,20.603-19.688,31.605-26.455c17.457-10.738,36.288-17.389,51.519-31.104s27.214-31.697,30.983-51.842
			c1.103-5.895,1.499-11.901,1.682-17.896c0.327-10.691-0.017-21.403-1.028-32.051c-0.122-1.286-0.654-2.949-1.945-2.909
			c-2.39-0.162-1.347,9.204-1.379,13.87c-0.13,18.786-2.298,37.77-8.924,55.349c-6.627,17.579-19.118,31.279-34.922,41.436
			c-2.481,1.595-6.32,2.784-7.921,0.307c-0.893-1.381-0.491-3.198-0.014-4.772c5.66-18.689,18.457-32.419,26.982-49.988
			c1.355-2.793,2.653-5.7,2.882-8.796c0.186-2.514-0.558-6.6-2.724-8.321c-3.843-3.054-7.418,1.821-9.747,4.487
			c-5.687,6.51-10.262,14.073-14.723,21.449c-14.046,23.222-31.275,44.33-48.443,65.35c-1.254,1.535-2.659,3.166-4.598,3.578
			c-3.633,0.773-6.536-3.041-7.835-6.521c-6.63-17.76,1.618-37.586,12.156-53.345c10.538-15.759,32.687-43.431,28.643-48.761
			c-4.044-5.33-13.507,12.56-21.575,17.236c-1.312,0.76-2.794,1.373-4.303,1.221c-2.501-0.252-4.384-2.6-4.909-5.059
			c-0.525-2.458,0.013-5.007,0.589-7.454c10.892-46.274,36.036-90.44,32.997-137.881c-2.028-31.653,12.696-62.51,28.859-89.8
			c20.296-34.269,54.485-60.175,93.134-69.796c38.649-9.621,81.263-2.651,114.472,19.337c12.952,8.576,24.777,19.738,30.83,34.044
			c1.498,3.541,2.625,7.567,1.31,11.18c-1.315,3.613-7.318,8.11-9.187,3.898c-1.869-4.213,4.754-9.574,2.411-12.176
			c-2.343-2.602-10.063,7.347-8.088,12.825c1.975,5.478,9.581,7.965,14.411,4.713c2.648-1.783,4.246-4.755,6.651-6.854
			c2.405-2.1,6.548-3.022,8.534-0.522c1.512,1.904,0.883,4.795-0.541,6.766c-1.424,1.971-3.485,3.383-5.099,5.202
			c-4.846,5.465-4.933,13.754-2.968,20.788s5.654,13.494,7.605,20.532c2.445,8.821,2.022,18.414-1.192,26.985"/>
	</g>
</g>
</svg>
